; We'll Bring The World His Truth - Children's Songbook of the
; Church of Jesus Christ of Latter-day Saints
; Demixed by Hyperdriveguy

Music_BringHisTruth:
	musicheader 4, 1, Music_BringHisTruth_Ch1
	musicheader 1, 2, Music_BringHisTruth_Ch2
	musicheader 1, 3, Music_BringHisTruth_Ch3
	musicheader 1, 4, Music_BringHisTruth_Ch4
	
Music_BringHisTruth_Ch1:
	tempo 160
	volume $77
	dutycycle $3
	tone $0001
	vibrato $10, $1F
	notetype $c, $62
	intensity $b5
Music_BringHisTruth_Ch1_Loop:
	octave 4
	note C_, 12
	note C_, 12
	note C_, 12
	note D_, 12
	note E_, 12
	note D_, 12
	note C_, 12
	note C_, 4
	octave 3
	note A_, 4
	note B_, 4
	octave 4
	note C_, 12
	note C_, 12
	note C_, 12
	note D_, 12
	note E_, 12
	note E_, 12
	octave 3
	note A#, 12
	octave 4
	note C_, 4
	note D_, 2
	note E_, 2
	note F_, 2
	note G_, 2
	note __, 2
	note C_, 2
	note F_, 4
	note F_, 4
	note __, 2
	note D_, 2
	note G_, 4
	note G_, 4
	note G_, 2
	note F_, 2
	note E_, 4
	note D_, 4
	note C_, 2
	octave 3
	note B_, 2
	note A_, 8
	note __, 4
	note A_, 8
	octave 4
	note F_, 4
	note C_, 8
	note C_, 4
	octave 3
	note A_, 4
	octave 4
	note C_, 4
	octave 3
	note B_, 8
	note A#, 4
	note __, 2
	octave 4
	note C_, 2
	octave 3
	note B_, 4
	note B_, 4
	note __, 2
	octave 4
	note D_, 2
	note G_, 4
	note G_, 4
	note G_, 2
	note F_, 2
	note E_, 4
	note D_, 4
	note C_, 12
	note C_, 12
	octave 3
	note A_, 8
	note B_, 4
	note E_, 4
	note F_, 2
	note E_, 2
	note D_, 4
	note E_, 12
	note E_, 4
	note F_, 4
	note E_, 4
	loopchannel 0, Music_BringHisTruth_Ch1_Loop
	
Music_BringHisTruth_Ch2:
	dutycycle $2
	vibrato $1c, $12
	notetype $c, $62
	intensity $a7
	tone $0002
Music_BringHisTruth_Ch2_Loop:
	octave 4
	note C_, 4
	note E_, 4
	note F_, 4
	note G_, 8
	note G_, 2
	note G_, 2
	note F_, 4
	note G_, 6
	note A_, 2
	note G_, 8
	note G_, 2
	note G_, 2
	octave 5
	note C_, 8
	note C_, 4
	octave 4
	note B_, 4
	note G_, 2
	note G_, 2
	note G_, 4
	note A_, 4
	note G_, 6
	note F_, 2
	note G_, 12
	note C_, 2
	note C_, 2
	note E_, 2
	note E_, 2
	note F_, 4
	note G_, 8
	note G_, 2
	note G_, 2
	note F_, 4
	note G_, 6
	note A_, 2
	note G_, 8
	note G_, 2
	note G_, 2
	octave 5
	note C_, 8
	note C_, 4
	note C_, 4
	octave 4
	note G_, 4
	note E_, 4
	note D_, 8
	note C_, 2
	note C_,2
	note C_, 12
	note A_, 8
	note A_, 4
	note B_, 8
	note B_, 4
	octave 5
	note C_, 2
	octave 4
	note B_, 2
	note G_, 4
	note F_, 4
	note E_, 2
	note D_, 2
	note C_, 8
	note A_, 2
	note A_, 2
	note A_, 4
	note A_, 4
	note A_, 2
	note G_, 2
	note F_, 4
	note E_, 4
	note D_, 12
	note D_, 8
	note C_, 4
	note A_, 8
	note A_, 4
	note B_, 8
	note B_, 4
	octave 5
	note C_, 2
	octave 4
	note B_, 2
	note G_, 4
	note F_, 4
	note E_, 2
	note E_, 2
	note D_, 2
	note D_, 2
	note C_, 4
	note F_, 8
	note E_, 2
	note E_, 2
	note D_, 4
	note C_, 4
	note D_, 4
	note C_, 12
	note C_, 12
	note A_, 4
	note F_, 4
	note E_, 2
	note __, 2
	loopchannel 0, Music_BringHisTruth_Ch2_Loop

Music_BringHisTruth_Ch3:
	stereopanning $ff
	vibrato $12, $24
	notetype $c, $b7
	tone $0003
	intensity $26
Music_BringHisTruth_Ch3_Loop:
	octave 3
	note E_, 8
	note D_, 4
	note E_, 8
	note G_, 4
	note A_, 8
	note F_, 4
	note B_, 8
	note G_, 4
	octave 4
	note C_, 12
	octave 3
	note E_, 12
	note C_, 12
	note F_, 12
	note E_, 8
	note D_, 4
	note E_, 8
	note G_, 4
	note A_, 8
	note G_, 4
	note E_, 12
	note E_, 8
	note G_, 4
	note F_, 4
	note E_, 4
	note G_, 4
	note F_, 12
	note E_, 8
	note A#, 4
	note F_, 4
	note A_, 8
	note F_, 4
	note B_, 8
	note E_, 2
	octave 4
	note C_, 10
	octave 2
	note A_, 4
	octave 3
	note E_, 4
	octave 2
	note G_, 4
	note F_, 2
	octave 3
	note C_, 6
	octave 2
	note A_, 4
	note D_, 4
	note A_, 4
	octave 3
	note F_, 4
	note F_, 12
	octave 2
	note G_, 8
	octave 3
	note C_, 4
	note F_, 4
	note A_, 8
	note F_, 4
	note B_, 8
	note E_, 2
	octave 4
	note C_, 10
	octave 2
	note A_, 2
	octave 3
	note E_, 6
	octave 2
	note A_, 4
	note D_, 4
	note A_, 4
	octave 3
	note F_, 4
	note F_, 12
	note C_, 12
	note C_, 12
	note C_, 8
	note C_, 4
	loopchannel 0, Music_BringHisTruth_Ch3_Loop

Music_BringHisTruth_Ch4:
	notetype $C
	togglenoise 3
Music_BringHisTruth_Ch4_Loop:
	note __, 4
	note C_, 4

Music_BringHisTruth_Ch4_Branch1:
	note D#, 4
	note C_, 4
	loopchannel 23, Music_BringHisTruth_Ch4_Branch1
	callchannel Music_BringHisTruth_Ch4_Branch2
	callchannel Music_BringHisTruth_Ch4_Branch2
	
Music_BringHisTruth_Ch4_Branch3:
	note D#, 4
	note C_, 4
	loopchannel 3, Music_BringHisTruth_Ch4_Branch3
	callchannel Music_BringHisTruth_Ch4_Branch2
	note C_, 4
	
Music_BringHisTruth_Ch4_Branch4:
	note D#, 4
	note C_, 4
	loopchannel 10, Music_BringHisTruth_Ch4_Branch4
	callchannel Music_BringHisTruth_Ch4_Branch2
	callchannel Music_BringHisTruth_Ch4_Branch2
	
Music_BringHisTruth_Ch4_Branch5:
	note D#, 4
	note C_, 4
	loopchannel 4, Music_BringHisTruth_Ch4_Branch5
	note D#, 4
	loopchannel 0, Music_BringHisTruth_Ch4_Loop


Music_BringHisTruth_Ch4_Branch2:
	note D#, 4
	note B_, 4
	note B_, 4
	endchannel

